<svg xmlns="http://www.w3.org/2000/svg" width="1018" height="763" viewBox="0 0 1018 763" fill="none"><script xmlns="" id="eppiocemhmnlbhjplcgkofciiegomcon"/><script xmlns=""/><script xmlns=""/>
<mask id="path-1-inside-1_1873_2437" fill="white">
<path d="M0 500C0 223.858 223.858 0 500 0H518C794.142 0 1018 223.858 1018 500V763H0V500Z"/>
</mask>
<path d="M0 500C0 223.858 223.858 0 500 0H518C794.142 0 1018 223.858 1018 500V763H0V500Z" fill="url(#paint0_linear_1873_2437)" fill-opacity="0.07"/>
<path d="M-3 500C-3 222.201 222.201 -3 500 -3H518C795.799 -3 1021 222.201 1021 500H1015C1015 225.514 792.486 3 518 3H500C225.514 3 3 225.514 3 500H-3ZM1018 763H0H1018ZM-3 763V500C-3 222.201 222.201 -3 500 -3V3C225.514 3 3 225.514 3 500V763H-3ZM518 -3C795.799 -3 1021 222.201 1021 500V763H1015V500C1015 225.514 792.486 3 518 3V-3Z" fill="url(#paint1_linear_1873_2437)" mask="url(#path-1-inside-1_1873_2437)"/>
<defs>
<linearGradient id="paint0_linear_1873_2437" x1="509" y1="0" x2="509" y2="763" gradientUnits="userSpaceOnUse">
<stop stop-color="white"/>
<stop offset="1" stop-color="white" stop-opacity="0"/>
</linearGradient>
<linearGradient id="paint1_linear_1873_2437" x1="509" y1="0" x2="509" y2="763" gradientUnits="userSpaceOnUse">
<stop stop-color="#B3D0F2"/>
<stop offset="1" stop-color="#B3D0F2" stop-opacity="0"/>
</linearGradient>
</defs>
<script xmlns=""/></svg>